<?xml version="1.0" encoding="UTF-8"?>
<!DOCTYPE svg PUBLIC "-//W3C//DTD SVG 1.1//EN" "http://www.w3.org/Graphics/SVG/1.1/DTD/svg11.dtd">
<!-- Creator: CorelDRAW 2020 (64 Bit) -->
<svg xmlns="http://www.w3.org/2000/svg" xml:space="preserve" width="500mm" height="500mm" version="1.1" style="shape-rendering:geometricPrecision; text-rendering:geometricPrecision; image-rendering:optimizeQuality; fill-rule:evenodd; clip-rule:evenodd"
viewBox="0 0 50000 50000"
 xmlns:xlink="http://www.w3.org/1999/xlink"
 xmlns:xodm="http://www.corel.com/coreldraw/odm/2003">
 <defs>
  <style type="text/css">
   <![CDATA[
    .fil0 {fill:#25BBE5}
    .fil2 {fill:#69CDE2}
    .fil1 {fill:#F9FAFA}
   ]]>
  </style>
 </defs>
 <g id="Camada_x0020_1">
  <metadata id="CorelCorpID_0Corel-Layer"/>
  <g id="_1703913778912">
   <path class="fil0" d="M32960.61 22586.53c-122.37,1317.26 -1048.19,3178.89 -1614.52,4082.93 -483.45,771.75 -1734.28,2853.44 -2729.37,3020.11 -93.49,435.62 186.36,53.38 -335.1,508.58 -4351.65,3799.11 -13655.16,4659.47 -16781.75,-1705.69 -391.89,1840.48 1731.55,4934.04 3471.16,6147.6 2195.71,1531.64 4488.2,2160.2 7784.64,1879.22 4684.43,-399.26 10499.14,-4029.21 11861.83,-7819.58 288.3,486.45 21.68,963.15 -238.66,1603.62 -202.46,498.09 -344.74,857.13 -596.17,1352.43 -1406.6,2770.61 -3322.69,4358.98 -6397.88,5448.24 -6667.18,2361.7 -12161.71,-1461.58 -12945.2,-1527.21 4765.33,5658.98 13649.1,6239.15 19311.83,700.49 2299.75,-2249.38 4040.55,-5456.35 3879.21,-10062.78 -116.98,-3338.64 -2266.74,-8493.98 -4352,-9428.65 13.22,1454.88 249.56,4605.86 -318.02,5800.69z"/>
   <path class="fil1" d="M13010.75 28298.62c450.03,-196.57 80.78,145.4 164.62,-317.06 45.44,-250.8 27.63,-245.7 -22.8,-506.2 -316.27,-1632.95 -1452.33,-4291.52 370.33,-6776.5 1349.25,-1839.5 4654.65,-2289.48 7514.15,-1981.61 2069.21,-132.75 7721.38,960.26 7722.18,-2851.79 0.51,-2227.03 -3462.88,-5416.24 -4764.88,-6068.12 -984.19,706.68 -1801.38,1521.49 -2737.93,2124.92 333.34,580.56 1493.8,1139.29 2128.09,1547.91 701.12,451.74 1775.29,985.45 1910.48,1631.26 -513.51,764.43 -1555.8,623.4 -2724.94,711.73 -4366.35,329.82 -10271.77,1770.18 -10944.69,6882.52 -272.82,2073.01 368.45,4255.62 1385.39,5602.94z"/>
   <path class="fil1" d="M28616.72 29689.57c995.09,-166.67 2245.92,-2248.36 2729.37,-3020.11 566.33,-904.04 1492.15,-2765.67 1614.52,-4082.93 -5182.4,-98.14 -8861.82,2630.15 -12282.88,5715.44 -1031.23,930.02 -2183.58,1841.94 -3079.39,2831.02 667.99,-115.61 2804.42,-1481.43 4989.52,-1981.84 2311.04,-529.23 4018.03,-263.28 6028.86,538.42z"/>
   <path class="fil2" d="M13010.75 28298.62c133.71,433.7 451.45,776.23 770.15,1075.93 359.1,337.65 653.47,708.27 1062.43,961.34 -987.09,-4662.25 1709.77,-7586.03 4878.16,-10486.27 427.01,-390.86 940.81,-693.46 1315.56,-1132.37 -2859.5,-307.87 -6164.9,142.11 -7514.15,1981.61 -1822.66,2484.98 -686.6,5143.55 -370.33,6776.5 50.43,260.5 68.24,255.4 22.8,506.2 -83.84,462.46 285.41,120.49 -164.62,317.06z"/>
  </g>
 </g>
</svg>
