<svg width="958" height="250" viewBox="0 0 958 250" fill="none" xmlns="http://www.w3.org/2000/svg">
<path d="M373.84 63.16C365.74 63.16 358.81 65.41 353.05 69.91C347.47 74.41 344.68 80.08 344.68 86.92C344.68 93.04 347.11 97.72 351.97 100.96C356.83 104.02 362.86 106.72 370.06 109.06C377.44 111.22 385.36 113.38 393.82 115.54C402.28 117.52 410.11 120.49 417.31 124.45C424.69 128.41 430.81 133.72 435.67 140.38C440.53 147.04 442.96 155.95 442.96 167.11C442.96 175.93 441.25 184.03 437.83 191.41C434.41 198.61 429.55 204.82 423.25 210.04C417.13 215.26 409.66 219.31 400.84 222.19C392.2 225.07 382.66 226.51 372.22 226.51C357.46 226.51 344.14 223.81 332.26 218.41C320.56 213.01 310.93 205.54 303.37 196L328.21 174.4C333.61 180.34 340.09 185.02 347.65 188.44C355.21 191.86 363.4 193.57 372.22 193.57C381.94 193.57 389.86 191.14 395.98 186.28C402.1 181.42 405.16 175.12 405.16 167.38C405.16 161.08 402.73 156.31 397.87 153.07C393.01 149.83 386.89 147.13 379.51 144.97C372.31 142.81 364.48 140.74 356.02 138.76C347.56 136.6 339.64 133.63 332.26 129.85C325.06 125.89 319.03 120.58 314.17 113.92C309.31 107.26 306.88 98.35 306.88 87.19C306.88 78.73 308.41 71.08 311.47 64.24C314.71 57.22 319.21 51.19 324.97 46.15C330.73 41.11 337.57 37.24 345.49 34.54C353.59 31.84 362.5 30.49 372.22 30.49C386.98 30.49 399.31 32.74 409.21 37.24C419.11 41.56 427.84 48.49 435.4 58.03L409.21 79.9C404.53 73.96 399.31 69.73 393.55 67.21C387.97 64.51 381.4 63.16 373.84 63.16ZM598.514 188.44V223H465.674V34H598.514V68.56H503.474V111.22H582.314V145.78H503.474V188.44H598.514ZM736.505 179.8H665.765L650.375 223H610.415L678.455 34H723.815L791.855 223H751.895L736.505 179.8ZM677.915 146.86H724.355L701.135 80.98L677.915 146.86Z" fill="white"/>
<path fill-rule="evenodd" clip-rule="evenodd" d="M175.754 106.508C174.754 117.272 167.189 132.484 162.561 139.872C158.61 146.178 148.389 163.189 140.258 164.551C139.494 168.11 141.78 164.987 137.519 168.706C101.96 199.751 25.9353 206.782 0.386226 154.768C-2.81613 169.808 14.5357 195.087 28.751 205.004C46.6934 217.52 65.4266 222.656 92.3637 220.36C130.643 217.097 178.158 187.435 189.293 156.462C191.649 160.437 189.47 164.332 187.343 169.566C185.689 173.636 184.526 176.57 182.471 180.617C170.977 203.257 155.32 216.237 130.191 225.138C75.7095 244.437 30.8107 213.195 24.4083 212.658C63.3485 258.901 135.943 263.642 182.216 218.382C201.009 200.001 215.234 173.795 213.915 136.154C212.959 108.872 195.392 66.7446 178.353 59.1069C178.461 70.9956 180.392 96.744 175.754 106.508Z" fill="#25BBE5"/>
<path fill-rule="evenodd" clip-rule="evenodd" d="M12.7325 153.184C16.4099 151.578 13.3926 154.372 14.0777 150.593C14.449 148.544 14.3035 148.586 13.8914 146.457C11.307 133.113 2.02357 111.389 16.9175 91.0824C27.943 76.0508 54.9533 72.3738 78.3199 74.8896C95.2285 73.8048 141.416 82.7364 141.422 51.586C141.426 33.3877 113.125 7.32688 102.486 2C94.4432 7.77468 87.7655 14.4329 80.1124 19.3639C82.8364 24.108 92.3191 28.6737 97.5023 32.0128C103.232 35.7042 112.009 40.0654 113.114 45.3427C108.918 51.5893 100.401 50.4368 90.8469 51.1586C55.167 53.8538 6.91049 65.6238 1.41169 107.4C-0.817678 124.339 4.42249 142.175 12.7325 153.184Z" fill="#F9FAFA"/>
<path fill-rule="evenodd" clip-rule="evenodd" d="M140.258 164.551C148.389 163.189 158.61 146.178 162.561 139.872C167.189 132.484 174.754 117.272 175.754 106.508C133.406 105.706 103.339 128 75.3836 153.212C66.9569 160.812 57.5404 168.263 50.2202 176.346C55.6787 175.401 73.1367 164.24 90.9924 160.151C109.877 155.826 123.826 158 140.258 164.551Z" fill="#F9FAFA"/>
<path fill-rule="evenodd" clip-rule="evenodd" d="M12.7323 153.184C13.8249 156.728 16.4213 159.527 19.0256 161.976C21.96 164.735 24.3655 167.764 27.7073 169.832C19.6412 131.734 41.6788 107.842 67.5695 84.1427C71.0588 80.9488 75.2574 78.4761 78.3197 74.8895C54.9531 72.3737 27.9428 76.0508 16.9173 91.0824C2.02337 111.389 11.3067 133.113 13.8912 146.457C14.3033 148.586 14.4488 148.544 14.0775 150.593C13.3924 154.372 16.4097 151.578 12.7323 153.184Z" fill="#69CDE2"/>
</svg>
